<svg width="25" height="26" viewBox="0 0 25 26" fill="none" xmlns="http://www.w3.org/2000/svg">
<path d="M0.625 5.8125L4.375 0.5H8.28125L5 5.1875H14.8438C17.5374 5.1875 20.1206 6.25753 22.0253 8.1622C23.93 10.0669 25 12.6501 25 15.3438C25 18.0374 23.93 20.6206 22.0253 22.5253C20.1206 24.43 17.5374 25.5 14.8438 25.5H7.8125L9.375 22.375H14.8438C16.7086 22.375 18.497 21.6342 19.8156 20.3156C21.1342 18.997 21.875 17.2086 21.875 15.3438C21.875 13.4789 21.1342 11.6905 19.8156 10.3719C18.497 9.05329 16.7086 8.3125 14.8438 8.3125H5L8.28125 13H4.375L0.625 7.6875L0 6.75L0.625 5.8125Z" fill="#26140D"/>
</svg>
