<svg width="40" height="40" viewBox="0 0 40 40" fill="none" xmlns="http://www.w3.org/2000/svg">
<g clip-path="url(#clip0_247_367)">
<path d="M37.9971 13.4947H35.1573L27.734 0.5L24.2623 2.48441L30.5517 13.4947H9.44558L15.737 2.48441L12.2633 0.5L4.83998 13.4947H2.00023C1.69272 13.4946 1.38933 13.5655 1.11366 13.7018C0.837983 13.8381 0.597447 14.0362 0.410748 14.2806C0.224049 14.525 0.0962172 14.8092 0.0371887 15.1111C-0.0218397 15.413 -0.0104739 15.7244 0.0704023 16.0212L5.66791 36.5534C5.9006 37.3992 6.40406 38.1453 7.10118 38.6775C7.7983 39.2097 8.65062 39.4986 9.52757 39.5H30.4717C32.2676 39.5 33.8554 38.2898 34.3314 36.5494L39.9289 16.0192C40.0103 15.7223 40.022 15.4107 39.963 15.1085C39.9041 14.8064 39.7761 14.522 39.589 14.2776C39.402 14.0332 39.1609 13.8353 38.8848 13.6995C38.6086 13.5637 38.3048 13.4936 37.9971 13.4947ZM30.4697 35.4992H9.52757L4.62 17.4955H35.3773L30.4697 35.4992Z" fill="white"/>
<path d="M12.5 19.5H17.5V31.5H12.5V19.5ZM22.5 19.5H27.5V31.5H22.5V19.5Z" fill="white"/>
</g>
<defs>
<clipPath id="clip0_247_367">
<rect width="40" height="39" fill="white" transform="translate(0 0.5)"/>
</clipPath>
</defs>
</svg>
