<svg width="20" height="16" viewBox="0 0 20 16" fill="none" xmlns="http://www.w3.org/2000/svg">
<path fill-rule="evenodd" clip-rule="evenodd" d="M19.5499 1.30345C19.8311 1.58474 19.9891 1.9662 19.9891 2.36395C19.9891 2.7617 19.8311 3.14316 19.5499 3.42445L8.30693 14.6674C8.15835 14.8161 7.98196 14.9339 7.78781 15.0144C7.59367 15.0948 7.38558 15.1362 7.17543 15.1362C6.96529 15.1362 6.7572 15.0948 6.56305 15.0144C6.36891 14.9339 6.19251 14.8161 6.04393 14.6674L0.457932 9.08245C0.314667 8.94408 0.200394 8.77856 0.12178 8.59556C0.0431668 8.41255 0.00178736 8.21572 5.66349e-05 8.01655C-0.00167409 7.81738 0.0362786 7.61986 0.1117 7.43552C0.187121 7.25117 0.298501 7.0837 0.43934 6.94286C0.580179 6.80202 0.747657 6.69064 0.932001 6.61522C1.11635 6.5398 1.31387 6.50184 1.51303 6.50357C1.7122 6.5053 1.90903 6.54668 2.09204 6.6253C2.27505 6.70391 2.44056 6.81818 2.57893 6.96145L7.17493 11.5574L17.4279 1.30345C17.5672 1.16406 17.7326 1.05348 17.9147 0.978042C18.0967 0.9026 18.2919 0.86377 18.4889 0.86377C18.686 0.86377 18.8811 0.9026 19.0632 0.978042C19.2452 1.05348 19.4106 1.16406 19.5499 1.30345Z" fill="black"/>
</svg>
