<svg width="20" height="20" viewBox="0 0 20 20" fill="none" xmlns="http://www.w3.org/2000/svg">
<path d="M10 0C4.47768 0 0 4.47768 0 10C0 15.5223 4.47768 20 10 20C15.5223 20 20 15.5223 20 10C20 4.47768 15.5223 0 10 0ZM5 7.96875C5.00572 7.68838 5.12112 7.42142 5.32143 7.22516C5.52174 7.02889 5.791 6.91897 6.07143 6.91897C6.35186 6.91897 6.62112 7.02889 6.82143 7.22516C7.02174 7.42142 7.13713 7.68838 7.14286 7.96875C7.13713 8.24912 7.02174 8.51608 6.82143 8.71234C6.62112 8.90861 6.35186 9.01853 6.07143 9.01853C5.791 9.01853 5.52174 8.90861 5.32143 8.71234C5.12112 8.51608 5.00572 8.24912 5 7.96875ZM13.3929 14.0402H12.3192C12.2254 14.0402 12.1451 13.9688 12.1384 13.875C12.0536 12.7701 11.1272 11.8973 10 11.8973C8.87277 11.8973 7.9442 12.7701 7.86161 13.875C7.85491 13.9688 7.77455 14.0402 7.6808 14.0402H6.60714C6.58292 14.0402 6.55895 14.0353 6.53668 14.0258C6.51441 14.0163 6.49431 14.0023 6.47761 13.9848C6.46091 13.9672 6.44794 13.9465 6.43951 13.9238C6.43108 13.9011 6.42736 13.8769 6.42857 13.8527C6.52679 11.971 8.09152 10.4688 10 10.4688C11.9085 10.4688 13.4732 11.971 13.5714 13.8527C13.5726 13.8769 13.5689 13.9011 13.5605 13.9238C13.5521 13.9465 13.5391 13.9672 13.5224 13.9848C13.5057 14.0023 13.4856 14.0163 13.4633 14.0258C13.4411 14.0353 13.4171 14.0402 13.3929 14.0402ZM13.9286 9.04018C13.6482 9.03446 13.3812 8.91906 13.185 8.71875C12.9887 8.51844 12.8788 8.24918 12.8788 7.96875C12.8788 7.68832 12.9887 7.41906 13.185 7.21875C13.3812 7.01844 13.6482 6.90305 13.9286 6.89732C14.2089 6.90305 14.4759 7.01844 14.6722 7.21875C14.8684 7.41906 14.9784 7.68832 14.9784 7.96875C14.9784 8.24918 14.8684 8.51844 14.6722 8.71875C14.4759 8.91906 14.2089 9.03446 13.9286 9.04018Z" fill="black"/>
</svg>
