<svg width="50" height="32" viewBox="0 0 50 32" fill="none" xmlns="http://www.w3.org/2000/svg">
<path d="M25.0125 3.74522e-06C19.45 3.74522e-06 13.8917 1.62804 9.08542 4.88618H0L4.08958 9.31967C2.22626 11.0118 0.920035 13.2262 0.342501 15.6719C-0.235034 18.1176 -0.0568635 20.6802 0.853606 23.0231C1.76408 25.3661 3.36426 27.3797 5.44394 28.7995C7.52362 30.2192 9.98553 30.9788 12.5062 30.9783C15.6557 30.9802 18.689 29.7931 20.9958 27.6558L25 32L29.0042 27.66C31.3089 29.7961 34.3404 30.9819 37.4875 30.9783C40.802 30.9783 43.9808 29.6662 46.3249 27.3305C48.6689 24.9948 49.9864 21.8268 49.9875 18.523C49.9897 16.7904 49.6281 15.0764 48.9259 13.4914C48.2237 11.9063 47.1966 10.4853 45.9104 9.31967L50 4.88618H40.9375C36.2422 1.69978 30.6928 -0.00291462 25.0125 3.74522e-06ZM25 4.07009C28.1896 4.07009 31.3812 4.69929 34.3833 5.94523C29.0479 7.98028 25 12.7398 25 18.2842C25 12.7377 20.9542 7.98028 15.6167 5.94523C18.5895 4.70901 21.7788 4.07031 25 4.07009ZM12.5042 10.0963C13.6147 10.0963 14.7143 10.3143 15.7402 10.7379C16.7662 11.1615 17.6984 11.7824 18.4836 12.565C19.2689 13.3477 19.8918 14.2769 20.3167 15.2995C20.7417 16.3222 20.9604 17.4182 20.9604 18.5251C20.9604 19.632 20.7417 20.7281 20.3167 21.7507C19.8918 22.7733 19.2689 23.7025 18.4836 24.4852C17.6984 25.2679 16.7662 25.8887 15.7402 26.3123C14.7143 26.7359 13.6147 26.9539 12.5042 26.9539C10.2614 26.9539 8.11055 26.0659 6.52469 24.4852C4.93884 22.9045 4.04792 20.7606 4.04792 18.5251C4.04792 16.2897 4.93884 14.1458 6.52469 12.565C8.11055 10.9843 10.2614 10.0963 12.5042 10.0963ZM37.4875 10.1005C38.5976 10.1 39.6969 10.3176 40.7226 10.7406C41.7483 11.1637 42.6804 11.784 43.4657 12.5661C44.2509 13.3482 44.8739 14.2768 45.2991 15.2989C45.7243 16.321 45.9433 17.4166 45.9437 18.523C45.9442 19.6295 45.7259 20.7252 45.3015 21.7476C44.8771 22.7701 44.2548 23.6991 43.4701 24.4818C42.6854 25.2645 41.7538 25.8855 40.7284 26.3093C39.703 26.7331 38.6038 26.9514 37.4937 26.9518C35.2518 26.9527 33.1014 26.0658 31.5156 24.4862C29.9297 22.9067 29.0383 20.7639 29.0375 18.5293C29.0367 16.2946 29.9265 14.1512 31.5112 12.5705C33.0958 10.9898 35.2456 10.1013 37.4875 10.1005ZM12.5042 14.1082C11.3284 14.1082 10.2007 14.5738 9.36933 15.4025C8.53792 16.2312 8.07083 17.3552 8.07083 18.5272C8.07083 19.6992 8.53792 20.8231 9.36933 21.6519C10.2007 22.4806 11.3284 22.9461 12.5042 22.9461C13.68 22.9461 14.8076 22.4806 15.639 21.6519C16.4704 20.8231 16.9375 19.6992 16.9375 18.5272C16.9375 17.3552 16.4704 16.2312 15.639 15.4025C14.8076 14.5738 13.68 14.1082 12.5042 14.1082ZM37.4875 14.1082C36.3117 14.1082 35.1841 14.5738 34.3527 15.4025C33.5212 16.2312 33.0542 17.3552 33.0542 18.5272C33.0542 19.6992 33.5212 20.8231 34.3527 21.6519C35.1841 22.4806 36.3117 22.9461 37.4875 22.9461C38.6633 22.9461 39.7909 22.4806 40.6223 21.6519C41.4538 20.8231 41.9208 19.6992 41.9208 18.5272C41.9208 17.3552 41.4538 16.2312 40.6223 15.4025C39.7909 14.5738 38.6633 14.1082 37.4875 14.1082Z" fill="white"/>
</svg>
