<svg width="50" height="50" viewBox="0 0 50 50" fill="none" xmlns="http://www.w3.org/2000/svg">
<path fill-rule="evenodd" clip-rule="evenodd" d="M36.1111 0C39.7947 0 43.3274 1.46329 45.932 4.06796C48.5367 6.67263 50 10.2053 50 13.8889V36.1111C50 39.7947 48.5367 43.3274 45.932 45.932C43.3274 48.5367 39.7947 50 36.1111 50H13.8889C10.2053 50 6.67263 48.5367 4.06796 45.932C1.46329 43.3274 0 39.7947 0 36.1111V13.8889C0 10.2053 1.46329 6.67263 4.06796 4.06796C6.67263 1.46329 10.2053 0 13.8889 0H36.1111ZM36.1111 5.55556H13.8889C11.6788 5.55556 9.55914 6.43353 7.99633 7.99633C6.43353 9.55914 5.55556 11.6788 5.55556 13.8889V36.1111C5.55556 38.3212 6.43353 40.4409 7.99633 42.0037C9.55914 43.5665 11.6788 44.4444 13.8889 44.4444H36.1111C38.3212 44.4444 40.4409 43.5665 42.0037 42.0037C43.5665 40.4409 44.4444 38.3212 44.4444 36.1111V13.8889C44.4444 11.6788 43.5665 9.55914 42.0037 7.99633C40.4409 6.43353 38.3212 5.55556 36.1111 5.55556ZM25 13.8889C27.9468 13.8889 30.773 15.0595 32.8567 17.1433C34.9405 19.227 36.1111 22.0531 36.1111 25C36.1111 27.9468 34.9405 30.773 32.8567 32.8567C30.773 34.9405 27.9468 36.1111 25 36.1111C22.0531 36.1111 19.227 34.9405 17.1433 32.8567C15.0595 30.773 13.8889 27.9468 13.8889 25C13.8889 22.0531 15.0595 19.227 17.1433 17.1433C19.227 15.0595 22.0531 13.8889 25 13.8889ZM25 19.4444C23.5266 19.4444 22.1135 20.0298 21.0716 21.0716C20.0298 22.1135 19.4444 23.5266 19.4444 25C19.4444 26.4734 20.0298 27.8865 21.0716 28.9284C22.1135 29.9702 23.5266 30.5556 25 30.5556C26.4734 30.5556 27.8865 29.9702 28.9284 28.9284C29.9702 27.8865 30.5556 26.4734 30.5556 25C30.5556 23.5266 29.9702 22.1135 28.9284 21.0716C27.8865 20.0298 26.4734 19.4444 25 19.4444ZM37.5 9.72222C38.2367 9.72222 38.9433 10.0149 39.4642 10.5358C39.9851 11.0567 40.2778 11.7633 40.2778 12.5C40.2778 13.2367 39.9851 13.9433 39.4642 14.4642C38.9433 14.9851 38.2367 15.2778 37.5 15.2778C36.7633 15.2778 36.0567 14.9851 35.5358 14.4642C35.0149 13.9433 34.7222 13.2367 34.7222 12.5C34.7222 11.7633 35.0149 11.0567 35.5358 10.5358C36.0567 10.0149 36.7633 9.72222 37.5 9.72222Z" fill="white"/>
</svg>
